<?xml version="1.0" encoding="UTF-8" standalone="no"?>
<svg
   width="16px"
   height="16px"
   viewBox="0 0 16 16"
   version="1.1"
   id="svg13"
   sodipodi:docname="obs-tray-active.svg"
   inkscape:version="1.1.2 (0a00cf5339, 2022-02-04, custom)"
   xmlns:inkscape="http://www.inkscape.org/namespaces/inkscape"
   xmlns:sodipodi="http://sodipodi.sourceforge.net/DTD/sodipodi-0.dtd"
   xmlns="http://www.w3.org/2000/svg"
   xmlns:svg="http://www.w3.org/2000/svg">
  <defs
     id="defs17" />
  <sodipodi:namedview
     id="namedview15"
     pagecolor="#ffffff"
     bordercolor="#666666"
     borderopacity="1.0"
     inkscape:pageshadow="2"
     inkscape:pageopacity="0.0"
     inkscape:pagecheckerboard="0"
     showgrid="false"
     inkscape:zoom="45.254834"
     inkscape:cx="7.6787377"
     inkscape:cy="7.5351066"
     inkscape:window-width="1908"
     inkscape:window-height="1038"
     inkscape:window-x="4"
     inkscape:window-y="34"
     inkscape:window-maximized="1"
     inkscape:current-layer="surface1" />
  <g
     id="surface1">
    <path
       style="fill:#eeeeee;fill-opacity:1;fill-rule:nonzero;stroke:none"
       d="m 7.9375,1.652344 c 3.46875,0 6.285156,2.816406 6.285156,6.285156 0,3.46875 -2.816406,6.285156 -6.285156,6.285156 -3.46875,0 -6.285156,-2.816406 -6.285156,-6.285156 0,-3.46875 2.816406,-6.285156 6.285156,-6.285156 z m 0,0"
       id="path2" />
    <path
       style="fill:#3f3f3f;fill-opacity:1;fill-rule:evenodd;stroke:none"
       d="m 7.9375,1.984375 c -2.601562,0 -7.277344,1.324219 -5.953125,7.605469 0.039063,-0.164063 0.28125,0.480468 0.332031,0.332031 -0.332031,-1.324219 0.4375,-2.59375 1.3125,-3.097656 0.988282,-0.570313 2.015625,-0.367188 2.988282,0.101562 0.390624,0.222657 0.839843,0.351563 1.320312,0.351563 1.464844,0 2.644531,-1.179688 2.644531,-2.648438 0,-1.464844 -1.179687,-2.644531 -2.644531,-2.644531 z m 0,0"
       id="path4" />
    <path
       style="fill:#3f3f3f;fill-opacity:1;fill-rule:evenodd;stroke:none"
       d="m 2.78125,10.914062 c 1.300781,2.253907 4.785156,5.640626 9.566406,1.351563 -0.164062,0.05078 0.269532,-0.484375 0.121094,-0.453125 -0.980469,0.949219 -2.464844,0.917969 -3.339844,0.414062 C 8.140625,11.65625 7.804688,10.664062 7.722656,9.585938 7.71875,9.136719 7.605469,8.683594 7.363281,8.269531 6.632812,7 5.019531,6.566406 3.75,7.300781 2.480469,8.03125 2.050781,9.644531 2.78125,10.914062 Z m 0,0"
       id="path6" />
    <path
       style="fill:#3f3f3f;fill-opacity:1;fill-rule:evenodd;stroke:none"
       d="m 13.09375,10.914062 c 1.300781,-2.253906 2.492188,-6.960937 -3.613281,-8.957031 0.125,0.113281 -0.554688,0.00391 -0.449219,0.121094 1.308594,0.375 2.023438,1.675781 2.023438,2.683594 0,1.140625 -0.691407,1.929687 -1.582032,2.539062 C 9.085938,7.527344 8.75,7.851562 8.511719,8.269531 c -0.734375,1.269531 -0.300781,2.878907 0.96875,3.613281 1.269531,0.734376 2.878906,0.300782 3.613281,-0.96875 z m 0,0"
       id="path8" />
    <path
       style="fill:#eeeeee;fill-opacity:1;fill-rule:evenodd;stroke:none"
       d="m 7.9375,0.660156 c -4.03125,0 -7.277344,3.246094 -7.277344,7.277344 0,4.03125 3.246094,7.277344 7.277344,7.277344 4.03125,0 7.277344,-3.246094 7.277344,-7.277344 0,-4.03125 -3.246094,-7.277344 -7.277344,-7.277344 z m 0,1.324219 c 3.296875,0 5.953125,2.65625 5.953125,5.953125 0,3.296875 -2.65625,5.953125 -5.953125,5.953125 -3.296875,0 -5.953125,-2.65625 -5.953125,-5.953125 0,-3.296875 2.65625,-5.953125 5.953125,-5.953125 z m 0,0"
       id="path10" />
    <path
       style="fill:#ff0000;fill-rule:evenodd"
       id="path114"
       sodipodi:type="arc"
       sodipodi:cx="4.7259336"
       sodipodi:cy="11.589669"
       sodipodi:rx="3.3079884"
       sodipodi:ry="3.166991"
       sodipodi:start="0.10412771"
       sodipodi:end="0.036828381"
       sodipodi:arc-type="arc"
       d="M 8.0160046,11.918845 A 3.3079884,3.166991 0 0 1 4.4375034,14.744599 3.3079884,3.166991 0 0 1 1.4261574,11.366651 3.3079884,3.166991 0 0 1 4.9033326,8.4272355 3.3079884,3.166991 0 0 1 8.0316788,11.706278"
       sodipodi:open="true" />
  </g>
</svg>
